<svg width="55" height="56" viewBox="0 0 55 56" fill="none" xmlns="http://www.w3.org/2000/svg">
    <rect y="0.363647" width="55" height="55" rx="20" fill="#25A4BE" fill-opacity="0.1"/>
    <path d="M20.1 17.1136C13.9719 17.1136 9 22.1527 9 28.3636C9 34.5746 13.9719 39.6136 20.1 39.6136H34.9C41.0281 39.6136 46 34.5746 46 28.3636C46 22.1527 41.0281 17.1136 34.9 17.1136H20.1ZM37.675 23.2074C38.2883 23.2074 38.8765 23.4543 39.3102 23.8939C39.7439 24.3334 39.9875 24.9295 39.9875 25.5511C39.9875 26.1727 39.7439 26.7689 39.3102 27.2084C38.8765 27.648 38.2883 27.8949 37.675 27.8949C37.0617 27.8949 36.4735 27.648 36.0398 27.2084C35.6061 26.7689 35.3625 26.1727 35.3625 25.5511C35.3625 24.9295 35.6061 24.3334 36.0398 23.8939C36.4735 23.4543 37.0617 23.2074 37.675 23.2074ZM31.6625 31.1761C31.6625 30.5545 31.9061 29.9584 32.3398 29.5189C32.7735 29.0793 33.3617 28.8324 33.975 28.8324C34.5883 28.8324 35.1765 29.0793 35.6102 29.5189C36.0439 29.9584 36.2875 30.5545 36.2875 31.1761C36.2875 31.7977 36.0439 32.3939 35.6102 32.8334C35.1765 33.273 34.5883 33.5199 33.975 33.5199C33.3617 33.5199 32.7735 33.273 32.3398 32.8334C31.9061 32.3939 31.6625 31.7977 31.6625 31.1761ZM18.7125 25.0824C18.7125 24.3031 19.3311 23.6761 20.1 23.6761C20.8689 23.6761 21.4875 24.3031 21.4875 25.0824V26.9574H23.3375C24.1064 26.9574 24.725 27.5844 24.725 28.3636C24.725 29.1429 24.1064 29.7699 23.3375 29.7699H21.4875V31.6449C21.4875 32.4242 20.8689 33.0511 20.1 33.0511C19.3311 33.0511 18.7125 32.4242 18.7125 31.6449V29.7699H16.8625C16.0936 29.7699 15.475 29.1429 15.475 28.3636C15.475 27.5844 16.0936 26.9574 16.8625 26.9574H18.7125V25.0824Z" fill="black" fill-opacity="0.6"/>
</svg>
