<svg width="55" height="56" viewBox="0 0 55 56" fill="none" xmlns="http://www.w3.org/2000/svg">
    <rect y="0.363647" width="55" height="55" rx="20" fill="#25A4BE" fill-opacity="0.1"/>
    <g clip-path="url(#clip0_2030_82)">
        <path d="M28.1361 17.7367L31.9472 19.1869L28 20.7103L24.0528 19.1869L27.8639 17.7367C27.9514 17.7025 28.0486 17.7025 28.141 17.7367H28.1361ZM20.6111 19.8802V25.3588C20.5479 25.3783 20.4847 25.3978 20.4215 25.4222L15.7549 27.1996C14.7 27.6 14 28.6205 14 29.7533V35.5736C14 36.6576 14.6368 37.639 15.6285 38.0785L20.2951 40.139C20.9951 40.4467 21.7875 40.4467 22.4875 40.139L28 37.7025L33.5174 40.139C34.2174 40.4467 35.0097 40.4467 35.7097 40.139L40.3764 38.0785C41.3632 37.6439 42.0049 36.6576 42.0049 35.5736V29.7582C42.0049 28.6205 41.3049 27.6049 40.25 27.1996L35.5833 25.4222C35.5201 25.3978 35.4569 25.3783 35.3938 25.3588V19.8802C35.3938 18.7426 34.6938 17.7269 33.6389 17.3217L28.9722 15.5443C28.35 15.3099 27.6646 15.3099 27.0424 15.5443L22.3757 17.3217C21.3111 17.7269 20.6111 18.7474 20.6111 19.8802ZM33.0556 25.6469L29.05 27.1703V22.8148L33.0556 21.2719V25.6469ZM21.525 27.6146L25.3361 29.0648L21.3889 30.5834L17.4417 29.0648L21.2528 27.6146C21.3403 27.5804 21.4375 27.5804 21.5299 27.6146H21.525ZM22.4389 37.5951V32.6879L26.4444 31.1449V35.8275L22.4389 37.5951ZM34.475 27.6146C34.5625 27.5804 34.6597 27.5804 34.7521 27.6146L38.5632 29.0648L34.6111 30.5834L30.6639 29.0648L34.475 27.6146ZM39.4333 35.9301L35.6611 37.5951V32.6879L39.6667 31.1449V35.5736C39.6667 35.7299 39.5743 35.8666 39.4333 35.9301Z" fill="black" fill-opacity="0.7"/>
    </g>
    <defs>
        <clipPath id="clip0_2030_82">
            <rect width="28" height="25" fill="white" transform="translate(14 15.3636)"/>
        </clipPath>
    </defs>
</svg>
