<svg width="55" height="56" viewBox="0 0 55 56" fill="none" xmlns="http://www.w3.org/2000/svg">
    <rect y="0.363647" width="55" height="55" rx="20" fill="#25A4BE" fill-opacity="0.1"/>
    <path d="M20.0989 19.6494H22.8981V24.5779H16.9119L18.5266 20.6813C18.7816 20.0601 19.4031 19.6494 20.0989 19.6494ZM25.4477 24.5779V19.6494H29.7608C30.2761 19.6494 30.7647 19.8753 31.0887 20.2654L34.6582 24.5779H25.4477ZM39.0562 24.6293L33.7446 18.2119C32.7778 17.0413 31.3118 16.3636 29.7608 16.3636H20.0989C18.0114 16.3636 16.1364 17.5907 15.3662 19.4594L13.1565 24.8038C11.8924 25.2864 11 26.4724 11 27.8636V33.6136C11 34.5224 11.7596 35.2565 12.6997 35.2565H14.4685C14.8722 37.5873 16.9703 39.3636 19.4987 39.3636C22.027 39.3636 24.1251 37.5873 24.5288 35.2565H31.4712C31.8749 37.5873 33.973 39.3636 36.5013 39.3636C39.0297 39.3636 41.1278 37.5873 41.5315 35.2565H43.3003C44.2404 35.2565 45 34.5224 45 33.6136V31.1494C45 27.802 42.4079 25.04 39.0616 24.6293H39.0562ZM34.0898 33.6136C34.198 33.3044 34.3687 33.019 34.592 32.774C34.8153 32.5291 35.0867 32.3294 35.3905 32.1867C35.6943 32.044 36.0244 31.961 36.3617 31.9427C36.6989 31.9243 37.0366 31.9709 37.355 32.0797C37.6735 32.1886 37.9664 32.3575 38.2167 32.5767C38.4671 32.7958 38.6699 33.0609 38.8133 33.3565C38.9568 33.652 39.038 33.9722 39.0524 34.2984C39.0667 34.6246 39.0139 34.9502 38.8969 35.2565C38.7887 35.5658 38.618 35.8512 38.3947 36.0961C38.1714 36.3411 37.9 36.5407 37.5962 36.6835C37.2924 36.8262 36.9623 36.9091 36.625 36.9275C36.2878 36.9458 35.9502 36.8993 35.6317 36.7904C35.3132 36.6816 35.0203 36.5127 34.77 36.2935C34.5197 36.0743 34.3169 35.8093 34.1734 35.5137C34.03 35.2181 33.9487 34.898 33.9343 34.5718C33.92 34.2456 33.9729 33.9199 34.0898 33.6136ZM19.4987 31.9708C20.1749 31.9708 20.8234 32.2304 21.3015 32.6926C21.7797 33.1547 22.0483 33.7815 22.0483 34.4351C22.0483 35.0886 21.7797 35.7154 21.3015 36.1776C20.8234 36.6397 20.1749 36.8994 19.4987 36.8994C18.8225 36.8994 18.174 36.6397 17.6958 36.1776C17.2177 35.7154 16.9491 35.0886 16.9491 34.4351C16.9491 33.7815 17.2177 33.1547 17.6958 32.6926C18.174 32.2304 18.8225 31.9708 19.4987 31.9708Z" fill="black" fill-opacity="0.69"/>
</svg>
