<svg width="73" height="73" viewBox="0 0 73 73" fill="none" xmlns="http://www.w3.org/2000/svg">
    <g filter="url(#filter0_d_2030_76)">
        <rect x="5" y="1" width="63" height="63" rx="19" fill="#25A4BE" fill-opacity="0.5" stroke="#25A4BE" stroke-width="2"/>
        <g clip-path="url(#clip0_2030_76)">
            <path d="M38.5681 24.592L35.2138 23.7518C34.7937 23.6484 34.4835 23.2929 34.4382 22.8599C34.393 22.4268 34.6192 22.0132 35.0005 21.8193L37.6374 20.5008L34.8454 18.4068C34.4899 18.1418 34.3413 17.6765 34.4835 17.2499C34.6256 16.8234 35.0199 16.5454 35.4658 16.5454H42.7045H44.7727H45.8068C47.7586 16.5454 49.6006 17.4632 50.7704 19.0273L54.4931 23.9909C54.8938 24.5273 55.1136 25.1801 55.1136 25.8523C55.1136 27.565 53.724 28.9545 52.0113 28.9545H50.6217C49.523 28.9545 48.4695 28.5215 47.694 27.7459L46.8408 26.8863H44.7727V28.2759C44.7727 29.8787 45.5999 31.3717 46.9572 32.2248L53.8468 36.5292C55.9215 37.8283 57.1818 40.0969 57.1818 42.5464C57.1818 46.463 54.0084 49.6363 50.0853 49.6363H47.8749H43.7386H17.9057C17.6924 49.6363 17.4791 49.6105 17.2852 49.5459C16.6906 49.3649 16.2059 48.9254 15.9732 48.3502C15.8827 48.1305 15.831 47.9042 15.8181 47.6586C15.8052 47.4195 15.8375 47.1868 15.9021 46.9671C16.0831 46.3725 16.5226 45.8878 17.1043 45.6486C17.2982 45.5711 17.505 45.5194 17.7183 45.5064L43.8226 43.1733C44.359 43.128 44.7727 42.6756 44.7727 42.1327C44.7727 41.8548 44.6628 41.5898 44.4689 41.3959L41.5993 38.5263C39.6604 36.5874 38.5681 33.9569 38.5681 31.2166V28.2759V24.592ZM48.909 21.2182C48.909 21.2118 48.909 21.2053 48.909 21.1988C48.909 21.1924 48.909 21.1859 48.909 21.1795V21.2182ZM48.825 21.6965L45.8261 20.9468C45.8132 21.0308 45.8068 21.1148 45.8068 21.1988C45.8068 22.0584 46.4983 22.75 47.3579 22.75C48.043 22.75 48.6182 22.3105 48.825 21.6965ZM24.2783 24.0749C25.3318 23.1378 26.8894 23.0279 28.0592 23.8099L36.4999 29.4328V31.2101C36.4999 33.33 37.0428 35.3982 38.0511 37.2208H23.0568C22.6237 37.2208 22.2359 36.9493 22.0873 36.5486C21.9386 36.1479 22.055 35.689 22.3846 35.4047L26.87 31.5591L17.0073 33.078C16.5549 33.1491 16.109 32.9099 15.9151 32.4963C15.7212 32.0827 15.8181 31.585 16.1607 31.2812L24.2783 24.0749Z" fill="black"/>
        </g>
    </g>
    <defs>
        <filter id="filter0_d_2030_76" x="0" y="0" width="73" height="73" filterUnits="userSpaceOnUse" color-interpolation-filters="sRGB">
            <feFlood flood-opacity="0"   result="BackgroundImageFix"/>
            <feColorMatrix in="SourceAlpha" type="matrix" values="0 0 0 0 0 0 0 0 0 0 0 0 0 0 0 0 0 0 127 0" result="hardAlpha"/>
            <feOffset dy="4"/>
            <feGaussianBlur stdDeviation="2"/>
            <feComposite in2="hardAlpha" operator="out"/>
            <feColorMatrix type="matrix" values="0 0 0 0 0 0 0 0 0 0 0 0 0 0 0 0 0 0 0.25 0"/>
            <feBlend mode="normal" in2="BackgroundImageFix" result="effect1_dropShadow_2030_76"/>
            <feBlend mode="normal" in="SourceGraphic" in2="effect1_dropShadow_2030_76" result="shape"/>
        </filter>
        <clipPath id="clip0_2030_76">
            <rect width="41.3636" height="33.0909" fill="white" transform="translate(15.8182 16.5454)"/>
        </clipPath>
    </defs>
</svg>
