<svg width="55" height="56" viewBox="0 0 55 56" fill="none" xmlns="http://www.w3.org/2000/svg">
    <rect y="0.0640869" width="55" height="55" rx="20" fill="#25A4BE" fill-opacity="0.1"/>
    <g clip-path="url(#clip0_2030_100)">
        <path d="M29.3125 18.3404L34.6763 21.0826C34.8705 21.1763 34.8772 21.4458 34.6763 21.5396L28.3013 24.8033C28.1071 24.9029 27.8795 24.8911 27.6987 24.8033L21.3304 21.5396C21.1295 21.4458 21.1295 21.1763 21.3304 21.0826L26.6875 18.3404V12.9732L13 19.9693V33.9673L18.25 31.2837V25.7993C18.2433 25.606 18.5045 25.4654 18.6987 25.5708L25.0737 28.8286C25.2679 28.9283 25.375 29.104 25.375 29.2915V35.8072C25.375 36.0005 25.1205 36.1411 24.9263 36.0357L19.5625 33.2935L14.3125 35.9771L28 42.9732L41.6875 35.9771L36.4375 33.2935L31.0737 36.0357C30.8862 36.1353 30.6183 36.0064 30.625 35.8072V29.2915C30.625 29.0923 30.7522 28.9224 30.9263 28.8286L37.3013 25.5708C37.4888 25.4654 37.7567 25.6001 37.75 25.7993V31.2837L43 33.9673V19.9693L29.3125 12.9732V18.3404Z" fill="black" fill-opacity="0.69"/>
    </g>
    <defs>
        <clipPath id="clip0_2030_100">
            <rect width="30" height="30" fill="white" transform="translate(13 12.9732)"/>
        </clipPath>
    </defs>
</svg>
